<mxfile host="Electron" agent="Mozilla/5.0 (Windows NT 10.0; Win64; x64) AppleWebKit/537.36 (KHTML, like Gecko) draw.io/27.0.9 Chrome/134.0.6998.205 Electron/35.4.0 Safari/537.36" version="27.0.9">
  <diagram name="Page-1" id="ijqjPopkexrsTL4376AW">
    <mxGraphModel dx="1940" dy="714" grid="1" gridSize="10" guides="1" tooltips="1" connect="1" arrows="1" fold="1" page="1" pageScale="1" pageWidth="850" pageHeight="1100" math="0" shadow="0">
      <root>
        <mxCell id="0" />
        <mxCell id="1" parent="0" />
        <mxCell id="znFII-o9H-K-C9xeNkJe-3" style="edgeStyle=orthogonalEdgeStyle;rounded=0;orthogonalLoop=1;jettySize=auto;html=1;" parent="1" source="znFII-o9H-K-C9xeNkJe-1" target="znFII-o9H-K-C9xeNkJe-5" edge="1">
          <mxGeometry relative="1" as="geometry">
            <mxPoint x="505" y="310" as="targetPoint" />
          </mxGeometry>
        </mxCell>
        <mxCell id="znFII-o9H-K-C9xeNkJe-4" style="edgeStyle=orthogonalEdgeStyle;rounded=0;orthogonalLoop=1;jettySize=auto;html=1;entryX=0.5;entryY=1;entryDx=0;entryDy=0;" parent="1" source="znFII-o9H-K-C9xeNkJe-1" target="znFII-o9H-K-C9xeNkJe-6" edge="1">
          <mxGeometry relative="1" as="geometry">
            <mxPoint x="385" y="310" as="targetPoint" />
          </mxGeometry>
        </mxCell>
        <mxCell id="znFII-o9H-K-C9xeNkJe-1" value="&lt;font style=&quot;font-size: 15px;&quot;&gt;Sales Office&lt;/font&gt;" style="rounded=1;whiteSpace=wrap;html=1;strokeWidth=2;fillColor=#fff2cc;strokeColor=#d6b656;" parent="1" vertex="1">
          <mxGeometry x="385" y="360" width="120" height="40" as="geometry" />
        </mxCell>
        <mxCell id="znFII-o9H-K-C9xeNkJe-5" value="Location" style="ellipse;whiteSpace=wrap;html=1;strokeWidth=2;" parent="1" vertex="1">
          <mxGeometry x="455" y="270" width="70" height="40" as="geometry" />
        </mxCell>
        <mxCell id="znFII-o9H-K-C9xeNkJe-6" value="&lt;u&gt;Office-Number&lt;/u&gt;" style="ellipse;whiteSpace=wrap;html=1;strokeWidth=2;" parent="1" vertex="1">
          <mxGeometry x="345" y="270" width="90" height="40" as="geometry" />
        </mxCell>
        <mxCell id="znFII-o9H-K-C9xeNkJe-7" style="edgeStyle=orthogonalEdgeStyle;rounded=0;orthogonalLoop=1;jettySize=auto;html=1;" parent="1" source="znFII-o9H-K-C9xeNkJe-9" target="znFII-o9H-K-C9xeNkJe-10" edge="1">
          <mxGeometry relative="1" as="geometry">
            <mxPoint x="920" y="294.57" as="targetPoint" />
          </mxGeometry>
        </mxCell>
        <mxCell id="znFII-o9H-K-C9xeNkJe-8" style="edgeStyle=orthogonalEdgeStyle;rounded=0;orthogonalLoop=1;jettySize=auto;html=1;entryX=0.5;entryY=1;entryDx=0;entryDy=0;" parent="1" source="znFII-o9H-K-C9xeNkJe-9" target="znFII-o9H-K-C9xeNkJe-11" edge="1">
          <mxGeometry relative="1" as="geometry">
            <mxPoint x="800" y="294.57" as="targetPoint" />
          </mxGeometry>
        </mxCell>
        <mxCell id="znFII-o9H-K-C9xeNkJe-9" value="&lt;font style=&quot;font-size: 15px;&quot;&gt;Employee&lt;/font&gt;" style="rounded=1;whiteSpace=wrap;html=1;strokeWidth=2;fillColor=#fff2cc;strokeColor=#d6b656;" parent="1" vertex="1">
          <mxGeometry x="800" y="360" width="120" height="40" as="geometry" />
        </mxCell>
        <mxCell id="znFII-o9H-K-C9xeNkJe-10" value="Emp-Name" style="ellipse;whiteSpace=wrap;html=1;strokeWidth=2;" parent="1" vertex="1">
          <mxGeometry x="880" y="254.57" width="80" height="40" as="geometry" />
        </mxCell>
        <mxCell id="znFII-o9H-K-C9xeNkJe-11" value="&lt;u&gt;Emp-ID&lt;/u&gt;" style="ellipse;whiteSpace=wrap;html=1;strokeWidth=2;" parent="1" vertex="1">
          <mxGeometry x="750" y="254.57" width="65" height="40" as="geometry" />
        </mxCell>
        <mxCell id="znFII-o9H-K-C9xeNkJe-14" style="edgeStyle=orthogonalEdgeStyle;rounded=0;orthogonalLoop=1;jettySize=auto;html=1;entryX=0;entryY=0.5;entryDx=0;entryDy=0;shape=link;" parent="1" source="znFII-o9H-K-C9xeNkJe-13" target="znFII-o9H-K-C9xeNkJe-9" edge="1">
          <mxGeometry relative="1" as="geometry" />
        </mxCell>
        <mxCell id="znFII-o9H-K-C9xeNkJe-17" value="&lt;font style=&quot;font-size: 13px;&quot;&gt;&lt;b&gt;M&lt;/b&gt;&lt;/font&gt;" style="edgeLabel;html=1;align=center;verticalAlign=middle;resizable=0;points=[];" parent="znFII-o9H-K-C9xeNkJe-14" vertex="1" connectable="0">
          <mxGeometry x="0.5048" y="1" relative="1" as="geometry">
            <mxPoint as="offset" />
          </mxGeometry>
        </mxCell>
        <mxCell id="znFII-o9H-K-C9xeNkJe-15" style="edgeStyle=orthogonalEdgeStyle;rounded=0;orthogonalLoop=1;jettySize=auto;html=1;entryX=1;entryY=0.5;entryDx=0;entryDy=0;shape=link;" parent="1" source="znFII-o9H-K-C9xeNkJe-13" target="znFII-o9H-K-C9xeNkJe-1" edge="1">
          <mxGeometry relative="1" as="geometry" />
        </mxCell>
        <mxCell id="znFII-o9H-K-C9xeNkJe-16" value="&lt;font style=&quot;font-size: 13px;&quot;&gt;&lt;b&gt;1&lt;/b&gt;&lt;/font&gt;" style="edgeLabel;html=1;align=center;verticalAlign=middle;resizable=0;points=[];" parent="znFII-o9H-K-C9xeNkJe-15" vertex="1" connectable="0">
          <mxGeometry x="0.46" y="1" relative="1" as="geometry">
            <mxPoint as="offset" />
          </mxGeometry>
        </mxCell>
        <mxCell id="znFII-o9H-K-C9xeNkJe-13" value="&lt;font style=&quot;font-size: 15px;&quot;&gt;Assigned&lt;/font&gt;" style="shape=rhombus;perimeter=rhombusPerimeter;whiteSpace=wrap;html=1;align=center;strokeWidth=2;fillColor=#dae8fc;strokeColor=#6c8ebf;" parent="1" vertex="1">
          <mxGeometry x="620" y="350" width="90" height="60" as="geometry" />
        </mxCell>
        <mxCell id="znFII-o9H-K-C9xeNkJe-19" style="edgeStyle=orthogonalEdgeStyle;rounded=0;orthogonalLoop=1;jettySize=auto;html=1;exitX=1;exitY=0.5;exitDx=0;exitDy=0;" parent="1" source="znFII-o9H-K-C9xeNkJe-18" edge="1">
          <mxGeometry relative="1" as="geometry">
            <mxPoint x="862.21" y="400.0000000000001" as="targetPoint" />
            <mxPoint x="702.2099999999996" y="535.0000000000001" as="sourcePoint" />
          </mxGeometry>
        </mxCell>
        <mxCell id="znFII-o9H-K-C9xeNkJe-22" value="&lt;font style=&quot;font-size: 13px;&quot;&gt;&lt;b&gt;1&lt;/b&gt;&lt;/font&gt;" style="edgeLabel;html=1;align=center;verticalAlign=middle;resizable=0;points=[];" parent="znFII-o9H-K-C9xeNkJe-19" vertex="1" connectable="0">
          <mxGeometry x="0.803" y="2" relative="1" as="geometry">
            <mxPoint as="offset" />
          </mxGeometry>
        </mxCell>
        <mxCell id="znFII-o9H-K-C9xeNkJe-20" style="edgeStyle=orthogonalEdgeStyle;rounded=0;orthogonalLoop=1;jettySize=auto;html=1;entryX=0.5;entryY=1;entryDx=0;entryDy=0;shape=link;" parent="1" source="znFII-o9H-K-C9xeNkJe-18" target="znFII-o9H-K-C9xeNkJe-1" edge="1">
          <mxGeometry relative="1" as="geometry">
            <Array as="points">
              <mxPoint x="555" y="440" />
              <mxPoint x="445" y="440" />
            </Array>
          </mxGeometry>
        </mxCell>
        <mxCell id="znFII-o9H-K-C9xeNkJe-21" value="&lt;font style=&quot;font-size: 13px;&quot;&gt;&lt;b&gt;1&lt;/b&gt;&lt;/font&gt;" style="edgeLabel;html=1;align=center;verticalAlign=middle;resizable=0;points=[];" parent="znFII-o9H-K-C9xeNkJe-20" vertex="1" connectable="0">
          <mxGeometry x="0.7833" relative="1" as="geometry">
            <mxPoint as="offset" />
          </mxGeometry>
        </mxCell>
        <mxCell id="znFII-o9H-K-C9xeNkJe-18" value="&lt;span style=&quot;font-size: 15px;&quot;&gt;Manage&lt;/span&gt;" style="shape=rhombus;perimeter=rhombusPerimeter;whiteSpace=wrap;html=1;align=center;strokeWidth=2;fillColor=#dae8fc;strokeColor=#6c8ebf;" parent="1" vertex="1">
          <mxGeometry x="505" y="490" width="100" height="60" as="geometry" />
        </mxCell>
        <mxCell id="znFII-o9H-K-C9xeNkJe-24" style="edgeStyle=orthogonalEdgeStyle;rounded=0;orthogonalLoop=1;jettySize=auto;html=1;exitX=0.5;exitY=0;exitDx=0;exitDy=0;entryX=0.5;entryY=1;entryDx=0;entryDy=0;" parent="1" source="znFII-o9H-K-C9xeNkJe-23" target="znFII-o9H-K-C9xeNkJe-41" edge="1">
          <mxGeometry relative="1" as="geometry">
            <mxPoint x="-38.99999999999977" y="310" as="targetPoint" />
          </mxGeometry>
        </mxCell>
        <mxCell id="znFII-o9H-K-C9xeNkJe-25" style="edgeStyle=orthogonalEdgeStyle;rounded=0;orthogonalLoop=1;jettySize=auto;html=1;exitX=0.5;exitY=0;exitDx=0;exitDy=0;" parent="1" source="znFII-o9H-K-C9xeNkJe-23" edge="1">
          <mxGeometry relative="1" as="geometry">
            <mxPoint x="121.00000000000023" y="310" as="targetPoint" />
          </mxGeometry>
        </mxCell>
        <mxCell id="znFII-o9H-K-C9xeNkJe-23" value="&lt;font style=&quot;font-size: 15px;&quot;&gt;Property&lt;/font&gt;" style="rounded=1;arcSize=10;whiteSpace=wrap;html=1;align=center;strokeWidth=2;fillColor=#fff2cc;strokeColor=#d6b656;" parent="1" vertex="1">
          <mxGeometry x="-29" y="360" width="120" height="40" as="geometry" />
        </mxCell>
        <mxCell id="znFII-o9H-K-C9xeNkJe-27" value="Location" style="ellipse;whiteSpace=wrap;html=1;strokeWidth=2;" parent="1" vertex="1">
          <mxGeometry x="91" y="270" width="70" height="40" as="geometry" />
        </mxCell>
        <mxCell id="znFII-o9H-K-C9xeNkJe-65" style="edgeStyle=orthogonalEdgeStyle;rounded=0;orthogonalLoop=1;jettySize=auto;html=1;entryX=0;entryY=0.5;entryDx=0;entryDy=0;endArrow=none;startFill=0;" parent="1" source="znFII-o9H-K-C9xeNkJe-31" target="znFII-o9H-K-C9xeNkJe-27" edge="1">
          <mxGeometry relative="1" as="geometry" />
        </mxCell>
        <mxCell id="znFII-o9H-K-C9xeNkJe-31" value="Adderss" style="ellipse;whiteSpace=wrap;html=1;strokeWidth=2;" parent="1" vertex="1">
          <mxGeometry x="41" y="220" width="50" height="30" as="geometry" />
        </mxCell>
        <mxCell id="znFII-o9H-K-C9xeNkJe-32" value="City" style="ellipse;whiteSpace=wrap;html=1;strokeWidth=2;" parent="1" vertex="1">
          <mxGeometry x="91" y="190" width="50" height="30" as="geometry" />
        </mxCell>
        <mxCell id="znFII-o9H-K-C9xeNkJe-33" value="State" style="ellipse;whiteSpace=wrap;html=1;strokeWidth=2;" parent="1" vertex="1">
          <mxGeometry x="121" y="220" width="50" height="30" as="geometry" />
        </mxCell>
        <mxCell id="znFII-o9H-K-C9xeNkJe-64" style="edgeStyle=orthogonalEdgeStyle;rounded=0;orthogonalLoop=1;jettySize=auto;html=1;entryX=1;entryY=0.5;entryDx=0;entryDy=0;endArrow=none;startFill=0;" parent="1" source="znFII-o9H-K-C9xeNkJe-34" target="znFII-o9H-K-C9xeNkJe-27" edge="1">
          <mxGeometry relative="1" as="geometry" />
        </mxCell>
        <mxCell id="znFII-o9H-K-C9xeNkJe-34" value="Zip-Code" style="ellipse;whiteSpace=wrap;html=1;strokeWidth=2;" parent="1" vertex="1">
          <mxGeometry x="160" y="190" width="70" height="30" as="geometry" />
        </mxCell>
        <mxCell id="znFII-o9H-K-C9xeNkJe-36" style="edgeStyle=orthogonalEdgeStyle;rounded=0;orthogonalLoop=1;jettySize=auto;html=1;entryX=0.352;entryY=0.079;entryDx=0;entryDy=0;entryPerimeter=0;endArrow=none;startFill=0;" parent="1" source="znFII-o9H-K-C9xeNkJe-32" target="znFII-o9H-K-C9xeNkJe-27" edge="1">
          <mxGeometry relative="1" as="geometry" />
        </mxCell>
        <mxCell id="znFII-o9H-K-C9xeNkJe-40" style="edgeStyle=orthogonalEdgeStyle;rounded=0;orthogonalLoop=1;jettySize=auto;html=1;entryX=0.769;entryY=0.121;entryDx=0;entryDy=0;entryPerimeter=0;endArrow=none;startFill=0;" parent="1" source="znFII-o9H-K-C9xeNkJe-33" target="znFII-o9H-K-C9xeNkJe-27" edge="1">
          <mxGeometry relative="1" as="geometry" />
        </mxCell>
        <mxCell id="znFII-o9H-K-C9xeNkJe-41" value="&lt;u&gt;Property-ID&lt;/u&gt;" style="ellipse;whiteSpace=wrap;html=1;strokeWidth=2;" parent="1" vertex="1">
          <mxGeometry x="-100" y="270" width="80" height="40" as="geometry" />
        </mxCell>
        <mxCell id="znFII-o9H-K-C9xeNkJe-43" style="edgeStyle=orthogonalEdgeStyle;rounded=0;orthogonalLoop=1;jettySize=auto;html=1;entryX=0;entryY=0.5;entryDx=0;entryDy=0;" parent="1" source="znFII-o9H-K-C9xeNkJe-42" target="znFII-o9H-K-C9xeNkJe-1" edge="1">
          <mxGeometry relative="1" as="geometry" />
        </mxCell>
        <mxCell id="znFII-o9H-K-C9xeNkJe-45" value="&lt;font style=&quot;font-size: 13px;&quot;&gt;&lt;b&gt;1&lt;/b&gt;&lt;/font&gt;" style="edgeLabel;html=1;align=center;verticalAlign=middle;resizable=0;points=[];" parent="znFII-o9H-K-C9xeNkJe-43" vertex="1" connectable="0">
          <mxGeometry x="0.4198" relative="1" as="geometry">
            <mxPoint as="offset" />
          </mxGeometry>
        </mxCell>
        <mxCell id="znFII-o9H-K-C9xeNkJe-44" style="edgeStyle=orthogonalEdgeStyle;rounded=0;orthogonalLoop=1;jettySize=auto;html=1;entryX=1;entryY=0.5;entryDx=0;entryDy=0;shape=link;exitX=0;exitY=0.5;exitDx=0;exitDy=0;" parent="1" source="znFII-o9H-K-C9xeNkJe-42" target="znFII-o9H-K-C9xeNkJe-23" edge="1">
          <mxGeometry relative="1" as="geometry">
            <mxPoint x="161.00000000000045" y="385.0000000000002" as="sourcePoint" />
          </mxGeometry>
        </mxCell>
        <mxCell id="znFII-o9H-K-C9xeNkJe-47" value="&lt;font style=&quot;font-size: 13px;&quot;&gt;&lt;b&gt;M&lt;/b&gt;&lt;/font&gt;" style="edgeLabel;html=1;align=center;verticalAlign=middle;resizable=0;points=[];" parent="znFII-o9H-K-C9xeNkJe-44" vertex="1" connectable="0">
          <mxGeometry x="0.4743" y="1" relative="1" as="geometry">
            <mxPoint as="offset" />
          </mxGeometry>
        </mxCell>
        <mxCell id="znFII-o9H-K-C9xeNkJe-42" value="&lt;font style=&quot;font-size: 15px;&quot;&gt;Listed&lt;/font&gt;" style="shape=rhombus;perimeter=rhombusPerimeter;whiteSpace=wrap;html=1;align=center;strokeWidth=2;fillColor=#dae8fc;strokeColor=#6c8ebf;" parent="1" vertex="1">
          <mxGeometry x="220" y="355" width="80" height="50" as="geometry" />
        </mxCell>
        <mxCell id="znFII-o9H-K-C9xeNkJe-48" style="edgeStyle=orthogonalEdgeStyle;rounded=0;orthogonalLoop=1;jettySize=auto;html=1;" parent="1" source="znFII-o9H-K-C9xeNkJe-50" target="znFII-o9H-K-C9xeNkJe-51" edge="1">
          <mxGeometry relative="1" as="geometry">
            <mxPoint x="394.9985714285716" y="540" as="targetPoint" />
          </mxGeometry>
        </mxCell>
        <mxCell id="znFII-o9H-K-C9xeNkJe-49" style="edgeStyle=orthogonalEdgeStyle;rounded=0;orthogonalLoop=1;jettySize=auto;html=1;entryX=0.5;entryY=1;entryDx=0;entryDy=0;" parent="1" source="znFII-o9H-K-C9xeNkJe-50" target="znFII-o9H-K-C9xeNkJe-52" edge="1">
          <mxGeometry relative="1" as="geometry">
            <mxPoint x="274.9985714285716" y="540" as="targetPoint" />
          </mxGeometry>
        </mxCell>
        <mxCell id="znFII-o9H-K-C9xeNkJe-50" value="&lt;font style=&quot;font-size: 15px;&quot;&gt;Owner&lt;/font&gt;" style="rounded=1;whiteSpace=wrap;html=1;strokeWidth=2;fillColor=#fff2cc;strokeColor=#d6b656;" parent="1" vertex="1">
          <mxGeometry x="274.9985714285716" y="590" width="120" height="40" as="geometry" />
        </mxCell>
        <mxCell id="znFII-o9H-K-C9xeNkJe-51" value="Owner-Name" style="ellipse;whiteSpace=wrap;html=1;strokeWidth=2;" parent="1" vertex="1">
          <mxGeometry x="344.9985714285716" y="500" width="85" height="40" as="geometry" />
        </mxCell>
        <mxCell id="znFII-o9H-K-C9xeNkJe-52" value="&lt;u&gt;Owner-ID&lt;/u&gt;" style="ellipse;whiteSpace=wrap;html=1;strokeWidth=2;" parent="1" vertex="1">
          <mxGeometry x="249.9985714285716" y="500" width="65" height="40" as="geometry" />
        </mxCell>
        <mxCell id="znFII-o9H-K-C9xeNkJe-55" style="edgeStyle=orthogonalEdgeStyle;rounded=0;orthogonalLoop=1;jettySize=auto;html=1;entryX=0.5;entryY=1;entryDx=0;entryDy=0;" parent="1" source="znFII-o9H-K-C9xeNkJe-54" target="znFII-o9H-K-C9xeNkJe-23" edge="1">
          <mxGeometry relative="1" as="geometry" />
        </mxCell>
        <mxCell id="znFII-o9H-K-C9xeNkJe-59" value="&lt;b&gt;N&lt;/b&gt;" style="edgeLabel;html=1;align=center;verticalAlign=middle;resizable=0;points=[];" parent="znFII-o9H-K-C9xeNkJe-55" vertex="1" connectable="0">
          <mxGeometry x="0.6633" relative="1" as="geometry">
            <mxPoint as="offset" />
          </mxGeometry>
        </mxCell>
        <mxCell id="znFII-o9H-K-C9xeNkJe-56" style="edgeStyle=orthogonalEdgeStyle;rounded=0;orthogonalLoop=1;jettySize=auto;html=1;entryX=0;entryY=0.5;entryDx=0;entryDy=0;shape=link;" parent="1" source="znFII-o9H-K-C9xeNkJe-54" target="znFII-o9H-K-C9xeNkJe-50" edge="1">
          <mxGeometry relative="1" as="geometry" />
        </mxCell>
        <mxCell id="znFII-o9H-K-C9xeNkJe-58" value="&lt;font style=&quot;font-size: 13px;&quot;&gt;&lt;b&gt;M&lt;/b&gt;&lt;/font&gt;" style="edgeLabel;html=1;align=center;verticalAlign=middle;resizable=0;points=[];" parent="znFII-o9H-K-C9xeNkJe-56" vertex="1" connectable="0">
          <mxGeometry x="0.4857" y="3" relative="1" as="geometry">
            <mxPoint as="offset" />
          </mxGeometry>
        </mxCell>
        <mxCell id="_aeg6iLhFU89RkEw6Bu4-1" style="edgeStyle=orthogonalEdgeStyle;rounded=0;orthogonalLoop=1;jettySize=auto;html=1;entryX=0.5;entryY=1;entryDx=0;entryDy=0;exitX=0;exitY=0;exitDx=0;exitDy=0;" edge="1" parent="1" source="znFII-o9H-K-C9xeNkJe-54" target="znFII-o9H-K-C9xeNkJe-60">
          <mxGeometry relative="1" as="geometry">
            <Array as="points">
              <mxPoint x="108" y="580" />
              <mxPoint x="58" y="580" />
            </Array>
          </mxGeometry>
        </mxCell>
        <mxCell id="znFII-o9H-K-C9xeNkJe-54" value="&lt;font style=&quot;font-size: 15px;&quot;&gt;Own&lt;/font&gt;" style="shape=rhombus;perimeter=rhombusPerimeter;whiteSpace=wrap;html=1;align=center;strokeWidth=2;fillColor=#dae8fc;strokeColor=#6c8ebf;" parent="1" vertex="1">
          <mxGeometry x="90" y="585" width="70" height="50" as="geometry" />
        </mxCell>
        <mxCell id="znFII-o9H-K-C9xeNkJe-60" value="Owned-Percent" style="ellipse;whiteSpace=wrap;html=1;strokeWidth=2;" parent="1" vertex="1">
          <mxGeometry x="10" y="520" width="95" height="40" as="geometry" />
        </mxCell>
      </root>
    </mxGraphModel>
  </diagram>
</mxfile>
